<svg width="24" height="24" viewBox="0 0 24 24" fill="none" xmlns="http://www.w3.org/2000/svg">
<path fill-rule="evenodd" clip-rule="evenodd" d="M19.6369 8.71401C20.1291 8.71401 20.5064 8.31206 20.5064 7.82808C20.5064 7.33589 20.1291 6.94214 19.6369 6.94214H4.3627C3.87871 6.94214 3.49316 7.34409 3.49316 7.82808C3.49316 8.30386 3.87871 8.71401 4.3627 8.71401H19.6369ZM17.9883 12.9633C18.4805 12.9633 18.8578 12.5531 18.8578 12.0773C18.8578 11.5852 18.4805 11.1914 17.9883 11.1914H6.03633C5.55234 11.1914 5.1668 11.5934 5.1668 12.0773C5.1668 12.5531 5.55234 12.9633 6.03633 12.9633H17.9883ZM17.209 16.3266C17.209 16.8023 16.8316 17.2125 16.3395 17.2125H7.68516C7.20117 17.2125 6.81562 16.7941 6.81562 16.3266C6.81562 15.8426 7.20117 15.4324 7.68516 15.4324H16.3395C16.8316 15.4324 17.209 15.8344 17.209 16.3266Z" fill="currentColor"/>
</svg>
