<svg width="24" height="24" viewBox="0 0 24 24" fill="none" xmlns="http://www.w3.org/2000/svg">
<path fill-rule="evenodd" clip-rule="evenodd" d="M18.3462 16.9153C18.3462 17.5481 17.865 18.0491 17.2256 18.0491C16.9224 18.0491 16.6257 17.9436 16.4082 17.7261L13.6924 15.0103C12.8882 15.5112 11.939 15.8013 10.9304 15.8013C8.03003 15.8013 5.65039 13.4216 5.65039 10.5212C5.65039 7.61426 8.03003 5.24121 10.9304 5.24121C13.8308 5.24121 16.2039 7.62085 16.2039 10.5212C16.2039 11.5891 15.8875 12.5845 15.3337 13.415L18.0232 16.1111C18.2473 16.3352 18.3462 16.6187 18.3462 16.9153ZM7.25391 10.5212C7.25391 12.5383 8.90845 14.1929 10.9321 14.1929C12.9492 14.1929 14.6038 12.5383 14.6038 10.5212C14.6038 8.50415 12.9492 6.84961 10.9321 6.84961C8.90845 6.84961 7.25391 8.50415 7.25391 10.5212Z" fill="currentColor" />
</svg>
