<svg width="20" height="20" viewBox="0 0 20 20" fill="none" xmlns="http://www.w3.org/2000/svg">
<path fill-rule="evenodd" clip-rule="evenodd" d="M10.6862 11.3021C10.6862 11.6602 10.3802 11.9727 10.0026 11.9727C9.625 11.9727 9.32552 11.6602 9.32552 11.3021V4.85027L9.38411 3.89324L9.00651 4.38803L8.16016 5.29298C8.04297 5.41668 7.8737 5.48829 7.70443 5.48829C7.38542 5.48829 7.11198 5.24741 7.11198 4.90886C7.11198 4.73959 7.17708 4.60939 7.30078 4.48569L9.47526 2.39584C9.65104 2.22006 9.82682 2.16147 10.0026 2.16147C10.1849 2.16147 10.3542 2.22006 10.5365 2.39584L12.7109 4.48569C12.8281 4.60939 12.8932 4.73959 12.8932 4.90886C12.8932 5.24741 12.6198 5.48829 12.2943 5.48829C12.1315 5.48829 11.9622 5.41668 11.8516 5.29298L10.9987 4.38803L10.6276 3.89324L10.6862 4.85027V11.3021ZM15.9792 15.0391C15.9792 16.4779 15.2109 17.2461 13.7591 17.2461H6.23958C4.79427 17.2461 4.01953 16.4779 4.01953 15.0391V8.71746C4.01953 7.27866 4.79427 6.51043 6.23958 6.51043H7.97786V8.00131H6.3763C5.8099 8.00131 5.51042 8.28777 5.51042 8.88022V14.8828C5.51042 15.4688 5.8099 15.7552 6.3763 15.7552H13.6224C14.1823 15.7552 14.4948 15.4688 14.4948 14.8828V8.88022C14.4948 8.28777 14.1823 8.00131 13.6224 8.00131H12.0469V6.51043H13.7591C15.2109 6.51043 15.9792 7.27866 15.9792 8.71746V15.0391Z" fill="currentColor"/>
</svg>
